<svg xmlns="http://www.w3.org/2000/svg" viewBox="0 0 600 600">
  <rect width="600" height="600" fill="#0a0a0a" rx="120"/>
  <g transform="translate(89,565.4) scale(0.1,-0.1)" fill="#fafafa">
    <path d="M555 5300 c-224 -34 -405 -167 -496 -367 -54 -116 -59 -184 -59 -738 0 -277 3 -510 6 -519 6 -14 132 -16 1329 -16 913 0 1332 -3 1352 -11 40 -15 73 -48 94 -94 17 -36 19 -70 19 -375 0 -304 -2 -339 -19 -375 -22 -50 -69 -91 -119 -105 -24 -6 -265 -10 -669 -10 l-633 0 0 -660 0 -660 -677 -2 -678 -3 2 -455 c2 -300 6 -472 14 -505 32 -139 143 -276 278 -343 118 -59 157 -63 646 -60 l430 3 3 677 2 677 803 4 c847 4 821 3 1002 54 448 127 813 476 961 917 70 213 69 192 69 986 0 711 0 716 -23 818 -44 198 -119 375 -222 527 -239 351 -622 585 -1040 635 -98 12 -2297 12 -2375 0z"/>
  </g>
</svg>
